<?xml version="1.0" encoding="iso-8859-1"?>
<!-- Generator: Adobe Illustrator 19.0.0, SVG Export Plug-In . SVG Version: 6.00 Build 0)  -->
<svg version="1.1" id="Capa_1" xmlns="http://www.w3.org/2000/svg" xmlns:xlink="http://www.w3.org/1999/xlink" x="0px" y="0px"
	 viewBox="0 0 512 512" style="enable-background:new 0 0 512 512;" xml:space="preserve">
<g>
	<path style="fill:#A8A89E;" d="M496.065,357.615c-7.853-7.776-20.516-7.708-28.284,0.153l-86.291,87.609l28.339,28.156
		l86.389-87.604C503.987,378.067,503.918,365.391,496.065,357.615z"/>
	<polygon style="fill:#A8A89E;" points="27,502 67,502 67,189.343 27,149.602 	"/>
</g>
<g>
	<path style="fill:#EC3C32;" d="M176.957,100.637c-7.819,7.81-7.819,20.474,0,28.284c7.819,7.811,20.495,7.811,28.314,0
		l44.595-44.547c7.819-7.81,7.819-20.474,0-28.284c-7.819-7.811-20.495-7.811-28.314,0L176.957,100.637z"/>
	<path style="fill:#EC3C32;" d="M341.97,405.688c7.853,7.776,20.516,7.708,28.284-0.153c7.768-7.861,7.7-20.537-0.153-28.314
		l-44.788-44.353c-7.853-7.776-20.516-7.708-28.284,0.153s-7.7,20.537,0.153,28.314L341.97,405.688z"/>
	<path style="fill:#EC3C32;" d="M111.975,121.542c-7.853-7.776-20.516-7.708-28.284,0.153s-7.7,20.537,0.153,28.314l142.185,140.802
		c7.853,7.776,20.516,7.708,28.284-0.153c7.768-7.861,7.7-20.537-0.153-28.314L111.975,121.542z"/>
</g>
<path style="fill:#E6E6E6;" d="M381.699,502l28.131-28.467L44.483,110.556c-7.853-7.776-20.516-7.708-28.284,0.153
	s-7.699,20.538,0.153,28.314L381.699,502z"/>
<path style="fill:#6E6E6E;" d="M158.5,261c-50.534,0-91.5,40.966-91.5,91.5s40.966,91.5,91.5,91.5s91.5-40.966,91.5-91.5
	S209.034,261,158.5,261z"/>
<circle style="fill:#A8A89E;" cx="158.5" cy="352.5" r="42.558"/>
<path d="M158.5,299.941c-28.98,0-52.558,23.578-52.558,52.559s23.578,52.559,52.558,52.559s52.558-23.578,52.558-52.559
	S187.48,299.941,158.5,299.941z M158.5,385.058c-17.953,0-32.558-14.605-32.558-32.559s14.605-32.559,32.558-32.559
	s32.558,14.605,32.558,32.559S176.453,385.058,158.5,385.058z"/>
<path d="M502,492h-27.826l17.211-86.914l11.947-12.129c11.626-11.765,11.524-30.806-0.228-42.446
	c-11.522-11.412-31.131-11.212-42.446,0.24l-79.244,80.455l-12.64-12.558c3.159-1.484,6.067-3.526,8.594-6.084
	c11.627-11.767,11.524-30.809-0.229-42.448c0,0-44.756-44.32-44.789-44.353c-11.64-11.526-30.932-11.409-42.434,0.23
	c-2.505,2.535-4.455,5.411-5.872,8.474l-31.002-30.8c3.078-1.474,5.913-3.479,8.384-5.98c11.626-11.766,11.524-30.808-0.229-42.447
	L148,143.143l15.828-15.829c1.469,3.188,3.503,6.126,6.061,8.682c11.238,11.227,30.947,11.49,42.449,0.001
	c0,0,44.568-44.521,44.595-44.547c11.587-11.575,11.574-30.873,0-42.436c-2.604-2.601-5.573-4.62-8.742-6.063l25.88-25.88
	c3.905-3.905,3.905-10.237,0-14.143c-3.905-3.904-10.237-3.904-14.143,0l-126.14,126.141c0,0-14.739-14.596-14.777-14.633
	c-11.529-11.417-31.079-11.262-42.434,0.23c-2.388,2.417-4.271,5.144-5.67,8.047c0,0-19.358-19.233-19.388-19.263
	c-11.565-11.49-31.021-11.317-42.433,0.23c-11.628,11.768-11.525,30.81,0.218,42.437L17,153.763V492h-7c-5.51,0-10,4.49-10,10
	s4.49,10,10,10h206c5.51,0,10-4.49,10-10s-4.49-10-10-10H77v-79.091C95.512,437.822,125.147,454,158.5,454
	c43.26,0,80.28-27.208,94.863-65.407L357.445,492H296c-5.51,0-10,4.49-10,10s4.49,10,10,10h206c5.51,0,10-4.49,10-10
	S507.51,492,502,492z M304.142,340.051c3.642-3.685,10.176-3.999,14.134-0.077l44.789,44.353c3.925,3.886,3.96,10.244,0.081,14.175
	c-3.807,3.858-10.314,3.871-14.139,0.082l-44.789-44.354C300.294,350.343,300.258,343.984,304.142,340.051z M242.798,77.3
	l-44.595,44.548c-3.909,3.904-10.268,3.905-14.178,0.001c-3.886-3.882-3.88-10.263-0.002-14.135c0,0,44.549-44.503,44.594-44.548
	c3.696-3.693,10.212-3.96,14.176-0.004C246.61,66.969,246.588,73.516,242.798,77.3z M474.895,364.797
	c3.83-3.887,10.276-3.897,14.134-0.076c3.926,3.888,3.96,10.249,0.065,14.19l-79.29,80.501l-14.202-14.11
	C395.602,445.302,474.561,365.136,474.895,364.797z M90.804,128.723c3.66-3.704,10.19-3.982,14.134-0.076L247.123,269.45
	c3.925,3.886,3.96,10.245,0.08,14.176c-3.607,3.655-10.226,3.954-14.138,0.08L89.497,141.182
	C87.026,137.322,87.45,132.12,90.804,128.723z M23.312,117.739c3.607-3.65,10.232-3.942,14.123-0.089l135.22,134.343
	c-4.627-0.649-9.352-0.993-14.155-0.993c-4.831,0-9.579,0.356-14.233,1.013L23.388,131.918
	C19.463,128.031,19.428,121.673,23.312,117.739z M121.799,257.882c-17.973,6.997-33.468,18.971-44.799,34.224v-78.733
	L121.799,257.882z M37,492V173.633l20,19.87V492H37z M158.5,434c-44.939,0-81.5-36.561-81.5-81.5s36.561-81.5,81.5-81.5
	s81.5,36.56,81.5,81.5S203.439,434,158.5,434z M258.918,337.696l136.789,135.901l-14.073,14.241l-122.546-121.75
	c0.598-4.446,0.912-8.981,0.912-13.588C260,347.472,259.628,342.53,258.918,337.696z M453.786,492h-48.007l60.087-61.005
	L453.786,492z"/>
<path d="M256,492c-5.51,0-10,4.49-10,10s4.49,10,10,10c5.51,0,10-4.49,10-10S261.51,492,256,492z"/>
<g>
</g>
<g>
</g>
<g>
</g>
<g>
</g>
<g>
</g>
<g>
</g>
<g>
</g>
<g>
</g>
<g>
</g>
<g>
</g>
<g>
</g>
<g>
</g>
<g>
</g>
<g>
</g>
<g>
</g>
</svg>
